<?xml version="1.0" encoding="utf-8"?>
<!-- Generator: Adobe Illustrator 24.0.3, SVG Export Plug-In . SVG Version: 6.00 Build 0)  -->
<svg version="1.1" id="Ebene_1" xmlns="http://www.w3.org/2000/svg" xmlns:xlink="http://www.w3.org/1999/xlink" x="0px" y="0px"
	 viewBox="0 0 563.7 94.1" style="enable-background:new 0 0 563.7 94.1;" xml:space="preserve">
<style type="text/css">
	.st0{fill:#0092AF;}
	.st1{fill:#166A81;}
	.st2{fill:#1A8AAF;}
	.st3{fill:#C6CFD2;}
	.st4{fill:#9BB0BB;}
	.st5{fill:#7B7B7C;}
	.st6{fill:#575757;}
	.st7{fill:#FFFFFF;}
	.st8{fill:#EBEAEA;}
	.st9{fill:#D1D1D1;}
	.st10{fill:#BBBABA;}
	.st11{opacity:0.58;fill:#7B7B7C;}
</style>
<g>
	<path class="st0" d="M49.8,68.5l-6.4-11h-6.8v11H25.7V26.9h17.5c8.4,0,15.3,6.9,15.3,15.3c0,4.4-1.9,8.4-4.9,11.2l8.8,15.1H49.8z
		 M36.6,48H43c3.3,0,6-2.6,6-5.9s-2.7-6-6-6h-6.4V48z"/>
	<path class="st0" d="M69.1,26.9h25.8v9H80v6.8h13.2v9.2H80v7.6h14.9v8.9H69.1V26.9z"/>
	<path class="st0" d="M126.5,42.3l16.9-15.4h4.9v41.5h-11V47.2l-10.9,9.9l-10.9-9.9v21.3h-11V26.9h4.9L126.5,42.3z"/>
	<path class="st0" d="M158.8,26.9h25.8v9h-14.9v6.8h13.2v9.2h-13.2v7.6h14.9v8.9h-25.8V26.9z"/>
	<path class="st0" d="M194.3,26.9h15.4c11.5,0,20.8,9.3,20.8,20.8c0,11.5-9.3,20.8-20.8,20.8h-15.4V26.9z M205.2,57.6h4.6
		c5.4,0,9.9-4.4,9.9-9.9c0-5.4-4.4-9.8-9.9-9.8h-4.6V57.6z"/>
	<path class="st0" d="M257.3,53.2v15.3h-10.8V53.2l-15.2-26.3h12.6l8,13.8l8-13.8h12.6L257.3,53.2z"/>
	<path class="st1" d="M349.6,42.3l16.9-15.4h4.9v41.5h-11V47.2l-10.9,9.9l-10.9-9.9v21.3h-11V26.9h4.9L349.6,42.3z"/>
	<path class="st1" d="M377,68.5l19.4-41.5h4.9l19.6,41.5H410l-2.5-5.4h-17l-2.5,5.4H377z M394.7,53.9h8.5l-4.2-9.1L394.7,53.9z"/>
	<path class="st1" d="M419.1,26.9h32.7v10.9h-11v30.7h-10.9V37.7h-10.8V26.9z"/>
	<path class="st1" d="M484.5,40.7c-1.7-1.7-4.2-2.7-7-2.7c-5.6,0-9.7,4.1-9.7,9.7c0,5.7,4.1,9.7,9.7,9.7c2.8,0,5.3-1,7-2.8l7.8,7.6
		c-3.8,3.8-9,6.1-14.7,6.1c-11.5,0-20.8-9.3-20.8-20.8c0-11.5,9.3-20.8,20.8-20.8c5.7,0,10.9,2.3,14.6,6L484.5,40.7z"/>
	<path class="st1" d="M510.1,26.9v14.8h13.2V26.9h10.9v41.5h-10.9V52.6h-13.2v15.8h-10.9V26.9H510.1z"/>
</g>
<g>
	<polygon class="st2" points="288,39.6 275.2,39.6 275.2,55.7 288,55.7 296.1,47.6 	"/>
</g>
<g>
	<polygon class="st3" points="304.1,39.6 304.1,26.8 288,26.8 288,39.6 296.1,47.6 	"/>
</g>
<g>
	<polygon class="st4" points="288,55.7 288,68.5 304.1,68.5 304.1,55.7 296.1,47.6 	"/>
</g>
<g>
	<polygon class="st1" points="304.1,39.6 296.1,47.6 304.1,55.7 316.9,55.7 316.9,39.6 	"/>
</g>
</svg>
